<svg id="visual" viewBox="0 0 900 600" width="900" height="600" xmlns="http://www.w3.org/2000/svg" xmlns:xlink="http://www.w3.org/1999/xlink" version="1.1"><path d="M0 560L12.5 554.8C25 549.7 50 539.3 75 538C100 536.7 125 544.3 150 545.7C175 547 200 542 225 540.2C250 538.3 275 539.7 300 543C325 546.3 350 551.7 375 554C400 556.3 425 555.7 450 554.5C475 553.3 500 551.7 525 546.5C550 541.3 575 532.7 600 534C625 535.3 650 546.7 675 548.5C700 550.3 725 542.7 750 536.5C775 530.3 800 525.7 825 525.5C850 525.3 875 529.7 887.5 531.8L900 534L900 601L887.5 601C875 601 850 601 825 601C800 601 775 601 750 601C725 601 700 601 675 601C650 601 625 601 600 601C575 601 550 601 525 601C500 601 475 601 450 601C425 601 400 601 375 601C350 601 325 601 300 601C275 601 250 601 225 601C200 601 175 601 150 601C125 601 100 601 75 601C50 601 25 601 12.5 601L0 601Z" fill="#fffbdc"></path><path d="M0 550L12.5 547.2C25 544.3 50 538.7 75 538.2C100 537.7 125 542.3 150 546.8C175 551.3 200 555.7 225 555C250 554.3 275 548.7 300 544.2C325 539.7 350 536.3 375 539.3C400 542.3 425 551.7 450 556.3C475 561 500 561 525 562C550 563 575 565 600 562.7C625 560.3 650 553.7 675 549.8C700 546 725 545 750 545C775 545 800 546 825 544.3C850 542.7 875 538.3 887.5 536.2L900 534L900 601L887.5 601C875 601 850 601 825 601C800 601 775 601 750 601C725 601 700 601 675 601C650 601 625 601 600 601C575 601 550 601 525 601C500 601 475 601 450 601C425 601 400 601 375 601C350 601 325 601 300 601C275 601 250 601 225 601C200 601 175 601 150 601C125 601 100 601 75 601C50 601 25 601 12.5 601L0 601Z" fill="#cee0bd"></path><path d="M0 560L12.5 558C25 556 50 552 75 551.5C100 551 125 554 150 555C175 556 200 555 225 553.7C250 552.3 275 550.7 300 550C325 549.3 350 549.7 375 549C400 548.3 425 546.7 450 549.5C475 552.3 500 559.7 525 560.7C550 561.7 575 556.3 600 557.2C625 558 650 565 675 566.7C700 568.3 725 564.7 750 564.3C775 564 800 567 825 566.5C850 566 875 562 887.5 560L900 558L900 601L887.5 601C875 601 850 601 825 601C800 601 775 601 750 601C725 601 700 601 675 601C650 601 625 601 600 601C575 601 550 601 525 601C500 601 475 601 450 601C425 601 400 601 375 601C350 601 325 601 300 601C275 601 250 601 225 601C200 601 175 601 150 601C125 601 100 601 75 601C50 601 25 601 12.5 601L0 601Z" fill="#98c5a8"></path><path d="M0 580L12.5 578.5C25 577 50 574 75 571.3C100 568.7 125 566.3 150 564C175 561.7 200 559.3 225 559.7C250 560 275 563 300 564.8C325 566.7 350 567.3 375 566.2C400 565 425 562 450 561.7C475 561.3 500 563.7 525 566C550 568.3 575 570.7 600 570.3C625 570 650 567 675 566.7C700 566.3 725 568.7 750 567.5C775 566.3 800 561.7 825 560C850 558.3 875 559.7 887.5 560.3L900 561L900 601L887.5 601C875 601 850 601 825 601C800 601 775 601 750 601C725 601 700 601 675 601C650 601 625 601 600 601C575 601 550 601 525 601C500 601 475 601 450 601C425 601 400 601 375 601C350 601 325 601 300 601C275 601 250 601 225 601C200 601 175 601 150 601C125 601 100 601 75 601C50 601 25 601 12.5 601L0 601Z" fill="#5faa9c"></path><path d="M0 576L12.5 576.8C25 577.7 50 579.3 75 579C100 578.7 125 576.3 150 575.8C175 575.3 200 576.7 225 576.5C250 576.3 275 574.7 300 573.8C325 573 350 573 375 575.2C400 577.3 425 581.7 450 583C475 584.3 500 582.7 525 580.5C550 578.3 575 575.7 600 576C625 576.3 650 579.7 675 580.3C700 581 725 579 750 577C775 575 800 573 825 572.8C850 572.7 875 574.3 887.5 575.2L900 576L900 601L887.5 601C875 601 850 601 825 601C800 601 775 601 750 601C725 601 700 601 675 601C650 601 625 601 600 601C575 601 550 601 525 601C500 601 475 601 450 601C425 601 400 601 375 601C350 601 325 601 300 601C275 601 250 601 225 601C200 601 175 601 150 601C125 601 100 601 75 601C50 601 25 601 12.5 601L0 601Z" fill="#148d95"></path></svg>